<svg width="19" height="19" viewBox="0 0 19 19" fill="none" xmlns="http://www.w3.org/2000/svg">
<path d="M15.8658 5.39913L11.3058 2.20871C10.0628 1.33788 8.15492 1.38538 6.9595 2.31163L2.99326 5.40704C2.20159 6.02454 1.57617 7.29121 1.57617 8.28871V13.7512C1.57617 15.77 3.21492 17.4166 5.23367 17.4166H13.7678C15.7866 17.4166 17.4253 15.7779 17.4253 13.7591V8.39163C17.4253 7.32288 16.7366 6.00871 15.8658 5.39913ZM10.0945 14.25C10.0945 14.5745 9.82534 14.8437 9.50075 14.8437C9.17617 14.8437 8.907 14.5745 8.907 14.25V11.875C8.907 11.5504 9.17617 11.2812 9.50075 11.2812C9.82534 11.2812 10.0945 11.5504 10.0945 11.875V14.25Z" fill="#F3001F"/>
</svg>
