<svg width="47" height="47" viewBox="0 0 47 47" fill="none" xmlns="http://www.w3.org/2000/svg">
<path d="M29.0291 7.77C28.9591 7.76 28.8891 7.76 28.8191 7.77C27.2691 7.72 26.0391 6.45 26.0391 4.89C26.0391 3.3 27.3291 2 28.9291 2C30.5191 2 31.8191 3.29 31.8191 4.89C31.8091 6.45 30.5791 7.72 29.0291 7.77Z" fill="#B0B0B0"/>
<path d="M32.2896 14.6999C31.1696 15.4499 29.5996 15.7299 28.1496 15.5399C28.5296 14.7199 28.7296 13.8099 28.7396 12.8499C28.7396 11.8499 28.5196 10.8999 28.0996 10.0699C29.5796 9.86991 31.1496 10.1499 32.2796 10.8999C33.8596 11.9399 33.8596 13.6499 32.2896 14.6999Z" fill="#B0B0B0"/>
<path d="M17.9402 7.77C18.0102 7.76 18.0802 7.76 18.1502 7.77C19.7002 7.72 20.9302 6.45 20.9302 4.89C20.9302 3.29 19.6402 2 18.0402 2C16.4502 2 15.1602 3.29 15.1602 4.89C15.1602 6.45 16.3902 7.72 17.9402 7.77Z" fill="#B0B0B0"/>
<path d="M18.0511 12.8501C18.0511 13.8201 18.2611 14.7401 18.6411 15.5701C17.2311 15.7201 15.7611 15.4201 14.6811 14.7101C13.1011 13.6601 13.1011 11.9501 14.6811 10.9001C15.7511 10.1801 17.2611 9.8901 18.6811 10.0501C18.2711 10.8901 18.0511 11.8401 18.0511 12.8501Z" fill="#B0B0B0"/>
<path d="M23.6208 15.87C23.5408 15.86 23.4508 15.86 23.3608 15.87C21.5208 15.81 20.0508 14.3 20.0508 12.44C20.0608 10.54 21.5908 9 23.5008 9C25.4008 9 26.9408 10.54 26.9408 12.44C26.9308 14.3 25.4708 15.81 23.6208 15.87Z" fill="#B0B0B0"/>
<path d="M20.3708 17.9401C18.8608 18.9501 18.8608 20.6101 20.3708 21.6101C22.0908 22.7601 24.9108 22.7601 26.6308 21.6101C28.1408 20.6001 28.1408 18.9401 26.6308 17.9401C24.9208 16.7901 22.1008 16.7901 20.3708 17.9401Z" fill="#B0B0B0"/>
<path d="M8.08953 36.97L6.91953 40.2H9.29953L8.12953 36.97H8.08953ZM5.90953 43H4.88953L7.58953 35.84H8.62953L11.3295 43H10.3095L9.61953 41.06H6.60953L5.90953 43ZM12.0092 38.1H12.8892V38.78H12.9292C13.0692 38.54 13.2826 38.34 13.5692 38.18C13.8626 38.02 14.1659 37.94 14.4792 37.94C15.0792 37.94 15.5392 38.1133 15.8592 38.46C16.1859 38.8 16.3492 39.2867 16.3492 39.92V43H15.4292V39.98C15.4092 39.18 15.0059 38.78 14.2192 38.78C13.8526 38.78 13.5459 38.93 13.2992 39.23C13.0526 39.5233 12.9292 39.8767 12.9292 40.29V43H12.0092V38.1ZM19.5803 42.32C20.0336 42.32 20.4036 42.1567 20.6903 41.83C20.9903 41.5033 21.1403 41.0767 21.1403 40.55C21.1403 40.0367 20.9903 39.6133 20.6903 39.28C20.397 38.9467 20.027 38.78 19.5803 38.78C19.1403 38.78 18.7703 38.9467 18.4703 39.28C18.1703 39.6133 18.0203 40.0367 18.0203 40.55C18.0203 41.07 18.1703 41.4933 18.4703 41.82C18.7703 42.1533 19.1403 42.32 19.5803 42.32ZM19.5503 45.32C19.277 45.32 19.0203 45.2833 18.7803 45.21C18.5403 45.1433 18.3203 45.0467 18.1203 44.92C17.927 44.7933 17.7603 44.6433 17.6203 44.47C17.4803 44.2967 17.3736 44.1033 17.3003 43.89L18.1703 43.53C18.2703 43.8167 18.4436 44.0467 18.6903 44.22C18.937 44.3933 19.2236 44.48 19.5503 44.48C20.0503 44.48 20.4403 44.33 20.7203 44.03C21.0003 43.73 21.1403 43.3167 21.1403 42.79V42.32H21.1003C20.927 42.58 20.6903 42.7867 20.3903 42.94C20.097 43.0867 19.777 43.16 19.4303 43.16C18.7903 43.16 18.2403 42.91 17.7803 42.41C17.327 41.8967 17.1003 41.2767 17.1003 40.55C17.1003 39.8233 17.327 39.2067 17.7803 38.7C18.2403 38.1933 18.7903 37.94 19.4303 37.94C19.777 37.94 20.097 38.0167 20.3903 38.17C20.6903 38.3167 20.927 38.52 21.1003 38.78H21.1403V38.1H22.0203V42.79C22.0203 43.5767 21.797 44.1933 21.3503 44.64C20.897 45.0933 20.297 45.32 19.5503 45.32ZM25.2932 42.32C25.7465 42.32 26.1165 42.1567 26.4032 41.83C26.7032 41.5033 26.8532 41.0767 26.8532 40.55C26.8532 40.0367 26.7032 39.6133 26.4032 39.28C26.1099 38.9467 25.7399 38.78 25.2932 38.78C24.8532 38.78 24.4832 38.9467 24.1832 39.28C23.8832 39.6133 23.7332 40.0367 23.7332 40.55C23.7332 41.07 23.8832 41.4933 24.1832 41.82C24.4832 42.1533 24.8532 42.32 25.2932 42.32ZM25.2632 45.32C24.9899 45.32 24.7332 45.2833 24.4932 45.21C24.2532 45.1433 24.0332 45.0467 23.8332 44.92C23.6399 44.7933 23.4732 44.6433 23.3332 44.47C23.1932 44.2967 23.0865 44.1033 23.0132 43.89L23.8832 43.53C23.9832 43.8167 24.1565 44.0467 24.4032 44.22C24.6499 44.3933 24.9365 44.48 25.2632 44.48C25.7632 44.48 26.1532 44.33 26.4332 44.03C26.7132 43.73 26.8532 43.3167 26.8532 42.79V42.32H26.8132C26.6399 42.58 26.4032 42.7867 26.1032 42.94C25.8099 43.0867 25.4899 43.16 25.1432 43.16C24.5032 43.16 23.9532 42.91 23.4932 42.41C23.0399 41.8967 22.8132 41.2767 22.8132 40.55C22.8132 39.8233 23.0399 39.2067 23.4932 38.7C23.9532 38.1933 24.5032 37.94 25.1432 37.94C25.4899 37.94 25.8099 38.0167 26.1032 38.17C26.4032 38.3167 26.6399 38.52 26.8132 38.78H26.8532V38.1H27.7332V42.79C27.7332 43.5767 27.5099 44.1933 27.0632 44.64C26.6099 45.0933 26.0099 45.32 25.2632 45.32ZM28.5261 40.55C28.5261 39.7967 28.7628 39.1733 29.2361 38.68C29.7161 38.1867 30.3194 37.94 31.0461 37.94C31.7728 37.94 32.3728 38.1867 32.8461 38.68C33.3261 39.1733 33.5661 39.7967 33.5661 40.55C33.5661 41.31 33.3261 41.9333 32.8461 42.42C32.3728 42.9133 31.7728 43.16 31.0461 43.16C30.3194 43.16 29.7161 42.9133 29.2361 42.42C28.7628 41.9267 28.5261 41.3033 28.5261 40.55ZM29.4461 40.55C29.4461 41.0767 29.5994 41.5033 29.9061 41.83C30.2128 42.1567 30.5928 42.32 31.0461 42.32C31.4994 42.32 31.8794 42.1567 32.1861 41.83C32.4928 41.5033 32.6461 41.0767 32.6461 40.55C32.6461 40.03 32.4928 39.6067 32.1861 39.28C31.8728 38.9467 31.4928 38.78 31.0461 38.78C30.5994 38.78 30.2194 38.9467 29.9061 39.28C29.5994 39.6067 29.4461 40.03 29.4461 40.55ZM36.1953 43.08C35.7953 43.08 35.462 42.9567 35.1953 42.71C34.9353 42.4633 34.802 42.12 34.7953 41.68V38.94H33.9353V38.1H34.7953V36.6H35.7153V38.1H36.9153V38.94H35.7153V41.38C35.7153 41.7067 35.7786 41.93 35.9053 42.05C36.032 42.1633 36.1753 42.22 36.3353 42.22C36.4086 42.22 36.4786 42.2133 36.5453 42.2C36.6186 42.18 36.6853 42.1567 36.7453 42.13L37.0353 42.95C36.7953 43.0367 36.5153 43.08 36.1953 43.08ZM38.3628 41.5C38.3628 41.74 38.4628 41.94 38.6628 42.1C38.8695 42.26 39.1095 42.34 39.3828 42.34C39.7695 42.34 40.1128 42.1967 40.4128 41.91C40.7195 41.6233 40.8728 41.2867 40.8728 40.9C40.5861 40.6733 40.1861 40.56 39.6728 40.56C39.2995 40.56 38.9861 40.65 38.7328 40.83C38.4861 41.01 38.3628 41.2333 38.3628 41.5ZM39.5528 37.94C40.2328 37.94 40.7695 38.1233 41.1628 38.49C41.5561 38.85 41.7528 39.3467 41.7528 39.98V43H40.8728V42.32H40.8328C40.4528 42.88 39.9461 43.16 39.3128 43.16C38.7728 43.16 38.3195 43 37.9528 42.68C37.5928 42.36 37.4128 41.96 37.4128 41.48C37.4128 40.9733 37.6028 40.57 37.9828 40.27C38.3695 39.97 38.8828 39.82 39.5228 39.82C40.0695 39.82 40.5195 39.92 40.8728 40.12V39.91C40.8728 39.59 40.7461 39.32 40.4928 39.1C40.2395 38.8733 39.9428 38.76 39.6028 38.76C39.0895 38.76 38.6828 38.9767 38.3828 39.41L37.5728 38.9C38.0195 38.26 38.6795 37.94 39.5528 37.94Z" fill="#B0B0B0"/>
</svg>
