<svg width="19" height="19" viewBox="0 0 19 19" fill="none" xmlns="http://www.w3.org/2000/svg">
<path d="M7.12498 1.58325C5.05081 1.58325 3.36456 3.2695 3.36456 5.34367C3.36456 7.37825 4.95581 9.02492 7.02998 9.09617C7.09331 9.08825 7.15665 9.08825 7.20415 9.09617C7.21998 9.09617 7.2279 9.09617 7.24373 9.09617C7.25165 9.09617 7.25165 9.09617 7.25956 9.09617C9.28623 9.02492 10.8775 7.37825 10.8854 5.34367C10.8854 3.2695 9.19915 1.58325 7.12498 1.58325Z" fill="#F3001F"/>
<path d="M11.1467 11.202C8.93795 9.72953 5.33586 9.72953 3.11128 11.202C2.10586 11.8749 1.5517 12.7854 1.5517 13.7591C1.5517 14.7329 2.10586 15.6354 3.10336 16.3004C4.2117 17.0445 5.66836 17.4166 7.12503 17.4166C8.5817 17.4166 10.0384 17.0445 11.1467 16.3004C12.1442 15.6274 12.6984 14.7249 12.6984 13.7433C12.6904 12.7695 12.1442 11.867 11.1467 11.202Z" fill="#F3001F"/>
<path d="M15.8254 5.81083C15.9521 7.34666 14.8596 8.6925 13.3475 8.87458C13.3396 8.87458 13.3396 8.87458 13.3317 8.87458H13.3079C13.2604 8.87458 13.2129 8.87458 13.1733 8.89041C12.4054 8.93 11.7008 8.68458 11.1704 8.23333C11.9858 7.505 12.4529 6.4125 12.3579 5.225C12.3025 4.58375 12.0808 3.99791 11.7483 3.49916C12.0492 3.34875 12.3975 3.25375 12.7537 3.22208C14.3054 3.0875 15.6908 4.24333 15.8254 5.81083Z" fill="#F3001F"/>
<path d="M17.4088 13.1337C17.3454 13.9017 16.8546 14.5667 16.0313 15.0179C15.2396 15.4533 14.2421 15.6592 13.2525 15.6354C13.8225 15.1208 14.155 14.4796 14.2184 13.7987C14.2975 12.8171 13.8304 11.875 12.8963 11.1229C12.3659 10.7033 11.7484 10.3708 11.0754 10.1254C12.825 9.61874 15.0259 9.95915 16.3796 11.0517C17.1079 11.6375 17.48 12.3737 17.4088 13.1337Z" fill="#F3001F"/>
</svg>
