<svg width="19" height="19" viewBox="0 0 19 19" fill="none" xmlns="http://www.w3.org/2000/svg">
<path d="M7.25165 8.60533C7.17249 8.59742 7.07749 8.59742 6.9904 8.60533C5.10624 8.542 3.60999 6.99825 3.60999 5.09825C3.60999 3.15867 5.17749 1.58325 7.12499 1.58325C9.06457 1.58325 10.64 3.15867 10.64 5.09825C10.6321 6.99825 9.13582 8.542 7.25165 8.60533Z" stroke="#292D32" stroke-width="1.5" stroke-linecap="round" stroke-linejoin="round"/>
<path d="M12.9912 3.16675C14.5271 3.16675 15.7621 4.40966 15.7621 5.93758C15.7621 7.43383 14.5746 8.653 13.0941 8.70841C13.0308 8.7005 12.9596 8.7005 12.8883 8.70841" stroke="#292D32" stroke-width="1.5" stroke-linecap="round" stroke-linejoin="round"/>
<path d="M3.29332 11.5267C1.37749 12.8092 1.37749 14.8992 3.29332 16.1738C5.4704 17.6305 9.04082 17.6305 11.2179 16.1738C13.1337 14.8913 13.1337 12.8013 11.2179 11.5267C9.04874 10.078 5.47832 10.078 3.29332 11.5267Z" stroke="#292D32" stroke-width="1.5" stroke-linecap="round" stroke-linejoin="round"/>
<path d="M14.5192 15.8333C15.0892 15.7145 15.6275 15.4849 16.0708 15.1445C17.3058 14.2183 17.3058 12.6903 16.0708 11.7641C15.6354 11.4316 15.105 11.2099 14.5429 11.0833" stroke="#292D32" stroke-width="1.5" stroke-linecap="round" stroke-linejoin="round"/>
</svg>
