<svg width="47" height="47" viewBox="0 0 47 47" fill="none" xmlns="http://www.w3.org/2000/svg">
<path d="M25 4.1L25 19.9C25 21.4 25.64 22 27.23 22L31.27 22C32.86 22 33.5 21.4 33.5 19.9L33.5 4.1C33.5 2.6 32.86 2 31.27 2L27.23 2C25.64 2 25 2.6 25 4.1Z" fill="#B0B0B0"/>
<path d="M13.5 11.1L13.5 19.9C13.5 21.4 14.14 22 15.73 22L19.77 22C21.36 22 22 21.4 22 19.9L22 11.1C22 9.6 21.36 9 19.77 9L15.73 9C14.14 9 13.5 9.6 13.5 11.1Z" fill="#B0B0B0"/>
<path d="M11.3353 41.09C11.3353 41.7167 11.1053 42.22 10.6453 42.6C10.1786 42.9733 9.61198 43.16 8.94531 43.16C8.35198 43.16 7.82865 42.9867 7.37531 42.64C6.92198 42.2933 6.60865 41.82 6.43531 41.22L7.31531 40.86C7.37531 41.0733 7.45865 41.2667 7.56531 41.44C7.67198 41.6133 7.79531 41.7633 7.93531 41.89C8.08198 42.01 8.24198 42.1067 8.41531 42.18C8.58865 42.2467 8.77198 42.28 8.96531 42.28C9.38531 42.28 9.72865 42.1733 9.99531 41.96C10.262 41.74 10.3953 41.45 10.3953 41.09C10.3953 40.79 10.2853 40.5333 10.0653 40.32C9.85865 40.1133 9.47198 39.9133 8.90531 39.72C8.33198 39.5133 7.97531 39.3733 7.83531 39.3C7.07531 38.9133 6.69531 38.3433 6.69531 37.59C6.69531 37.0633 6.90531 36.6133 7.32531 36.24C7.75198 35.8667 8.27531 35.68 8.89531 35.68C9.44198 35.68 9.91531 35.82 10.3153 36.1C10.7153 36.3733 10.982 36.7167 11.1153 37.13L10.2553 37.49C10.1753 37.2233 10.0153 37.0033 9.77531 36.83C9.54198 36.65 9.25531 36.56 8.91531 36.56C8.55531 36.56 8.25198 36.66 8.00531 36.86C7.75865 37.0467 7.63531 37.29 7.63531 37.59C7.63531 37.8367 7.73198 38.05 7.92531 38.23C8.13865 38.41 8.60198 38.6233 9.31531 38.87C10.042 39.1167 10.5586 39.42 10.8653 39.78C11.1786 40.1333 11.3353 40.57 11.3353 41.09ZM13.9688 43.08C13.5688 43.08 13.2354 42.9567 12.9688 42.71C12.7088 42.4633 12.5754 42.12 12.5688 41.68V38.94H11.7088V38.1H12.5688V36.6H13.4888V38.1H14.6888V38.94H13.4888V41.38C13.4888 41.7067 13.5521 41.93 13.6788 42.05C13.8054 42.1633 13.9488 42.22 14.1087 42.22C14.1821 42.22 14.2521 42.2133 14.3188 42.2C14.3921 42.18 14.4588 42.1567 14.5188 42.13L14.8088 42.95C14.5688 43.0367 14.2888 43.08 13.9688 43.08ZM16.1363 41.5C16.1363 41.74 16.2363 41.94 16.4363 42.1C16.6429 42.26 16.8829 42.34 17.1563 42.34C17.5429 42.34 17.8863 42.1967 18.1863 41.91C18.4929 41.6233 18.6463 41.2867 18.6463 40.9C18.3596 40.6733 17.9596 40.56 17.4463 40.56C17.0729 40.56 16.7596 40.65 16.5063 40.83C16.2596 41.01 16.1363 41.2333 16.1363 41.5ZM17.3263 37.94C18.0063 37.94 18.5429 38.1233 18.9363 38.49C19.3296 38.85 19.5263 39.3467 19.5263 39.98V43H18.6463V42.32H18.6063C18.2263 42.88 17.7196 43.16 17.0863 43.16C16.5463 43.16 16.0929 43 15.7263 42.68C15.3663 42.36 15.1863 41.96 15.1863 41.48C15.1863 40.9733 15.3763 40.57 15.7563 40.27C16.1429 39.97 16.6563 39.82 17.2963 39.82C17.8429 39.82 18.2929 39.92 18.6463 40.12V39.91C18.6463 39.59 18.5196 39.32 18.2663 39.1C18.0129 38.8733 17.7163 38.76 17.3763 38.76C16.8629 38.76 16.4563 38.9767 16.1562 39.41L15.3463 38.9C15.7929 38.26 16.4529 37.94 17.3263 37.94ZM22.4062 43.08C22.0063 43.08 21.6729 42.9567 21.4063 42.71C21.1463 42.4633 21.0129 42.12 21.0063 41.68V38.94H20.1463V38.1H21.0063V36.6H21.9263V38.1H23.1263V38.94H21.9263V41.38C21.9263 41.7067 21.9896 41.93 22.1163 42.05C22.2429 42.1633 22.3863 42.22 22.5462 42.22C22.6196 42.22 22.6896 42.2133 22.7563 42.2C22.8296 42.18 22.8963 42.1567 22.9563 42.13L23.2463 42.95C23.0063 43.0367 22.7263 43.08 22.4062 43.08ZM25.2402 36.41C25.2402 36.59 25.1769 36.7433 25.0502 36.87C24.9236 36.9967 24.7702 37.06 24.5902 37.06C24.4102 37.06 24.2569 36.9967 24.1302 36.87C24.0036 36.7433 23.9402 36.59 23.9402 36.41C23.9402 36.23 24.0036 36.0767 24.1302 35.95C24.2569 35.8233 24.4102 35.76 24.5902 35.76C24.7702 35.76 24.9236 35.8233 25.0502 35.95C25.1769 36.0767 25.2402 36.23 25.2402 36.41ZM25.0502 38.1V43H24.1302V38.1H25.0502ZM29.9975 41.64C29.9975 42.0667 29.8108 42.4267 29.4375 42.72C29.0642 43.0133 28.5942 43.16 28.0275 43.16C27.5342 43.16 27.1008 43.0333 26.7275 42.78C26.3542 42.52 26.0875 42.18 25.9275 41.76L26.7475 41.41C26.8675 41.7033 27.0408 41.9333 27.2675 42.1C27.5008 42.26 27.7542 42.34 28.0275 42.34C28.3208 42.34 28.5642 42.2767 28.7575 42.15C28.9575 42.0233 29.0575 41.8733 29.0575 41.7C29.0575 41.3867 28.8175 41.1567 28.3375 41.01L27.4975 40.8C26.5442 40.56 26.0675 40.1 26.0675 39.42C26.0675 38.9733 26.2475 38.6167 26.6075 38.35C26.9742 38.0767 27.4408 37.94 28.0075 37.94C28.4408 37.94 28.8308 38.0433 29.1775 38.25C29.5308 38.4567 29.7775 38.7333 29.9175 39.08L29.0975 39.42C29.0042 39.2133 28.8508 39.0533 28.6375 38.94C28.4308 38.82 28.1975 38.76 27.9375 38.76C27.6975 38.76 27.4808 38.82 27.2875 38.94C27.1008 39.06 27.0075 39.2067 27.0075 39.38C27.0075 39.66 27.2708 39.86 27.7975 39.98L28.5375 40.17C29.5108 40.41 29.9975 40.9 29.9975 41.64ZM32.6895 43.08C32.2895 43.08 31.9561 42.9567 31.6895 42.71C31.4295 42.4633 31.2961 42.12 31.2895 41.68V38.94H30.4295V38.1H31.2895V36.6H32.2095V38.1H33.4095V38.94H32.2095V41.38C32.2095 41.7067 32.2728 41.93 32.3995 42.05C32.5261 42.1633 32.6695 42.22 32.8295 42.22C32.9028 42.22 32.9728 42.2133 33.0395 42.2C33.1128 42.18 33.1795 42.1567 33.2395 42.13L33.5295 42.95C33.2895 43.0367 33.0095 43.08 32.6895 43.08ZM35.5234 36.41C35.5234 36.59 35.4601 36.7433 35.3334 36.87C35.2068 36.9967 35.0534 37.06 34.8734 37.06C34.6934 37.06 34.5401 36.9967 34.4134 36.87C34.2868 36.7433 34.2234 36.59 34.2234 36.41C34.2234 36.23 34.2868 36.0767 34.4134 35.95C34.5401 35.8233 34.6934 35.76 34.8734 35.76C35.0534 35.76 35.2068 35.8233 35.3334 35.95C35.4601 36.0767 35.5234 36.23 35.5234 36.41ZM35.3334 38.1V43H34.4134V38.1H35.3334ZM40.8407 43H39.7307L38.2007 40.69L37.4507 41.43V43H36.5307V35.84H37.4507V40.25L39.5707 38.1H40.7507V38.14L38.8407 40.04L40.8407 42.96V43Z" fill="#B0B0B0"/>
</svg>
